<svg width="100" height="100" viewBox="0 0 100 100" fill="none" xmlns="http://www.w3.org/2000/svg">
<path d="M50.0002 0C22.3919 0 0.000244141 22.3917 0.000244141 50C0.000244141 77.6083 22.3919 100 50.0002 100C77.6086 100 100 77.6083 100 50C100 22.3917 77.6211 0 50.0002 0ZM24.6669 51.6792L24.8794 51.3417L37.8919 30.9917C37.9355 30.9248 37.9962 30.8708 38.0678 30.8354C38.1394 30.8 38.2191 30.7845 38.2987 30.7904C38.3784 30.7964 38.4549 30.8236 38.5204 30.8693C38.5859 30.915 38.6379 30.9774 38.6711 31.05C40.8377 35.9208 42.7211 41.9792 41.8377 45.75C41.4711 47.3 40.4419 49.4 39.2794 51.3417C39.1303 51.6257 38.9676 51.9024 38.7919 52.1708C38.7498 52.2307 38.6935 52.2792 38.6281 52.3119C38.5626 52.3446 38.4901 52.3606 38.4169 52.3583H25.0544C24.9747 52.3596 24.896 52.3392 24.8269 52.2993C24.7578 52.2595 24.7008 52.2017 24.6619 52.132C24.6231 52.0624 24.6038 51.9835 24.6061 51.9038C24.6084 51.824 24.6323 51.7464 24.6752 51.6792H24.6669ZM82.6419 58.6792C82.6429 58.7681 82.6178 58.8554 82.5697 58.9303C82.5215 59.0051 82.4525 59.0641 82.3711 59.1C81.3586 59.5292 77.9127 61.1208 76.4794 63.1083C72.8211 68.2 70.0294 75.4833 63.7794 75.4833H37.7211C35.5209 75.48 33.343 75.0433 31.3117 74.1979C29.2805 73.3525 27.4357 72.1151 25.8829 70.5565C24.33 68.9979 23.0996 67.1485 22.2618 65.1141C21.424 63.0797 20.9953 60.9001 21.0002 58.7V58.4C21.0002 58.1583 21.2002 57.9583 21.4502 57.9583H35.9711C36.2627 57.9583 36.4711 58.2208 36.4502 58.5083C36.3419 59.45 36.5211 60.4208 36.9711 61.3C37.8294 63.05 39.6211 64.1417 41.5502 64.1417H48.7419V58.5292H41.6252C41.5419 58.5283 41.4603 58.5047 41.3893 58.4608C41.3184 58.417 41.2607 58.3547 41.2225 58.2805C41.1844 58.2064 41.1672 58.1232 41.1728 58.04C41.1784 57.9568 41.2066 57.8767 41.2544 57.8083L41.5169 57.4333C42.1836 56.4708 43.1461 54.9917 44.1044 53.3C44.7544 52.1583 45.3877 50.9417 45.8961 49.7167C45.9961 49.5 46.0752 49.2708 46.1669 49.05C46.3044 48.6583 46.4461 48.2917 46.5461 47.9292C46.6442 47.6218 46.7345 47.312 46.8169 47C47.0544 45.9583 47.1544 44.8583 47.1544 43.7208C47.1544 43.2708 47.1377 42.8 47.0961 42.3583C47.0752 41.8708 47.0127 41.3792 46.9544 40.8917C46.9078 40.4555 46.8411 40.0217 46.7544 39.5917C46.6423 38.9369 46.5061 38.2864 46.3461 37.6417L46.2877 37.3917C46.1627 36.9417 46.0544 36.5167 45.9127 36.0708C45.516 34.7017 45.06 33.3504 44.5461 32.0208C44.367 31.5207 44.1697 31.0273 43.9544 30.5417C43.6544 29.8 43.3461 29.1292 43.0669 28.5C42.928 28.2305 42.7974 27.9567 42.6752 27.6792C42.5397 27.3797 42.3966 27.0838 42.2461 26.7917C42.1461 26.5708 42.0252 26.3583 41.9461 26.1583L41.0669 24.5417C40.9461 24.3208 41.1461 24.05 41.3877 24.1208L46.8877 25.6083H46.9294L47.6502 25.8167L48.4502 26.0417L48.7419 26.1208V22.8583C48.7419 21.2792 50.0002 20 51.5711 20C51.942 19.999 52.3093 20.0731 52.6508 20.2177C52.9924 20.3623 53.3012 20.5746 53.5586 20.8417C54.0906 21.3783 54.3899 22.1027 54.3919 22.8583V27.7083L54.9794 27.8708C55.0211 27.8917 55.0711 27.9125 55.1086 27.9417C55.2502 28.0417 55.4586 28.2 55.7211 28.4C55.9294 28.5583 56.1502 28.7583 56.4086 28.9708C57.2314 29.6412 58.0291 30.3416 58.8002 31.0708C59.6919 31.9 60.6919 32.8708 61.6502 33.95C61.9211 34.2583 62.1794 34.5583 62.4502 34.8917C62.7086 35.2208 63.0002 35.5417 63.2419 35.8583C63.5711 36.2917 63.9086 36.7417 64.2211 37.2083C64.3586 37.4292 64.5294 37.6583 64.6586 37.8792C65.0586 38.4708 65.4002 39.0792 65.7294 39.6917C65.8711 39.9708 66.0086 40.2792 66.1294 40.5792C66.5002 41.4 66.7919 42.2292 66.9711 43.0708C67.0304 43.2495 67.0708 43.4338 67.0919 43.6208V43.6625C67.1502 43.9 67.1711 44.1625 67.1919 44.4292C67.3092 45.6607 67.1586 46.903 66.7502 48.0708C66.6211 48.4208 66.5002 48.7792 66.3419 49.1292C66.0294 49.8375 65.6711 50.5583 65.2419 51.2208C65.1002 51.4708 64.9294 51.7292 64.7711 51.9792C64.5919 52.2417 64.4002 52.4917 64.2419 52.7292C64.0128 53.0447 63.7724 53.3518 63.5211 53.65C63.3002 53.95 63.0794 54.25 62.8294 54.5208C62.4919 54.9292 62.1627 55.3125 61.8086 55.6792C61.6086 55.9208 61.3919 56.1708 61.1586 56.3875C60.9419 56.6375 60.7086 56.8583 60.5086 57.0583C60.1586 57.4083 59.8836 57.6708 59.6419 57.9L59.0711 58.4083C58.9916 58.4881 58.8837 58.5331 58.7711 58.5333H54.3919V64.1417H59.9002C61.1294 64.1417 62.3002 63.7083 63.2502 62.9C63.5711 62.6208 64.9794 61.4 66.6502 59.5583C66.7047 59.4956 66.7776 59.4519 66.8586 59.4333L82.0669 55.0292C82.1337 55.0099 82.204 55.0063 82.2724 55.0187C82.3408 55.0311 82.4054 55.0592 82.4611 55.1008C82.5168 55.1424 82.5621 55.1963 82.5935 55.2583C82.6248 55.3204 82.6414 55.3888 82.6419 55.4583V58.6792Z" fill="#E0E0E0"/>
</svg>
