<svg width="100" height="100" viewBox="0 0 100 100" fill="none" xmlns="http://www.w3.org/2000/svg">
<path d="M20.0003 4.35884e-05C17.3723 -0.00544855 14.7691 0.508118 12.3401 1.51127C9.91113 2.51442 7.70416 3.98739 5.8459 5.84566C3.98764 7.70393 2.51466 9.91089 1.51151 12.3399C0.508362 14.7689 -0.0052044 17.3721 0.000287729 20V80C-0.0052044 82.628 0.508362 85.2312 1.51151 87.6602C2.51466 90.0892 3.98764 92.2962 5.8459 94.1544C7.70416 96.0127 9.91113 97.4857 12.3401 98.4888C14.7691 99.492 17.3723 100.006 20.0003 100H80.0002C82.6282 100.006 85.2314 99.492 87.6604 98.4888C90.0894 97.4857 92.2963 96.0127 94.1546 94.1544C96.0128 92.2962 97.4858 90.0892 98.489 87.6602C99.4921 85.2312 100.006 82.628 100 80V20C100.006 17.3721 99.4921 14.7689 98.489 12.3399C97.4858 9.91089 96.0128 7.70393 94.1546 5.84566C92.2963 3.98739 90.0894 2.51442 87.6604 1.51127C85.2314 0.508118 82.6282 -0.00544855 80.0002 4.35884e-05H20.0003ZM25.5003 32H59.6752C68.2586 32 74.9502 33.8334 74.9502 41.725C74.9502 46.4625 72.1544 48.8167 69.0044 49.6334C72.7711 50.75 75.496 53.8 75.496 58.6334V67.5125H61.1169V59.0834C61.1169 56.5 59.5752 55.4584 56.9502 55.4584H39.8836V67.5125H25.5003V32ZM39.8836 42.4167V45.8917H57.1961C59.0794 45.8917 60.2211 45.6417 60.2211 44.1584C60.2211 42.6667 59.0794 42.4167 57.1961 42.4167H39.8836Z" fill="#E0E0E0"/>
</svg>
